<svg width="21" height="20" viewBox="0 0 21 20" fill="none" xmlns="http://www.w3.org/2000/svg">
<path d="M14.6667 2.5009C14.8856 2.28203 15.1454 2.10842 15.4314 1.98996C15.7173 1.87151 16.0238 1.81055 16.3334 1.81055C16.6429 1.81055 16.9494 1.87151 17.2353 1.98996C17.5213 2.10842 17.7812 2.28203 18 2.5009C18.2189 2.71977 18.3925 2.97961 18.511 3.26558C18.6294 3.55154 18.6904 3.85804 18.6904 4.16757C18.6904 4.4771 18.6294 4.7836 18.511 5.06956C18.3925 5.35553 18.2189 5.61537 18 5.83424L6.75002 17.0842L2.16669 18.3342L3.41669 13.7509L14.6667 2.5009Z" stroke="#667085" stroke-width="1.66667" stroke-linecap="round" stroke-linejoin="round"/>
</svg>
