<svg width="113" height="34" viewBox="0 0 113 34" fill="none" xmlns="http://www.w3.org/2000/svg">
<path d="M9.55412 18.7592C7.65811 18.6618 5.87044 18.1706 4.19113 17.2855C4.1644 17.271 4.13428 17.264 4.10398 17.2653C4.07374 17.2664 4.04445 17.2758 4.01924 17.2924C2.99802 17.9541 2.12832 18.7745 1.41007 19.7536C1.39626 19.772 1.37894 19.7874 1.35908 19.799C1.33928 19.8107 1.31738 19.8182 1.29471 19.8212C1.27198 19.8242 1.24894 19.8227 1.22697 19.8166C1.20495 19.8105 1.18445 19.8001 1.16669 19.7859L0.446718 19.2215C0.411958 19.1946 0.389103 19.1552 0.383055 19.1117C0.377007 19.0682 0.388276 19.024 0.414378 18.9887C1.08042 18.0765 1.87297 17.2906 2.79207 16.6311C2.81423 16.6156 2.83224 16.595 2.84472 16.571C2.8572 16.5471 2.86369 16.5205 2.86369 16.4935C2.86369 16.4664 2.8572 16.4398 2.84472 16.4159C2.83224 16.3919 2.81423 16.3713 2.79207 16.3558C1.87074 15.6997 1.07648 14.9172 0.409285 14.0084C0.382801 13.9728 0.371532 13.9281 0.377898 13.8841C0.384328 13.8402 0.40782 13.8005 0.44328 13.7738L1.16669 13.218C1.18477 13.2045 1.20539 13.1947 1.22729 13.189C1.24919 13.1834 1.27192 13.1821 1.2942 13.1853C1.31649 13.1885 1.33794 13.196 1.35723 13.2074C1.37652 13.2189 1.39333 13.234 1.40663 13.252C2.13169 14.2175 2.99917 15.0322 4.00899 15.6963C4.03433 15.7132 4.06381 15.7229 4.09437 15.7244C4.12499 15.7259 4.15548 15.7191 4.1826 15.7048C5.83473 14.8322 7.59629 14.3489 9.46735 14.2549C9.77032 14.2401 9.80267 14.1393 9.56437 13.9523C8.09496 12.7999 6.95577 11.3789 6.14674 9.6893C6.13382 9.66201 6.11389 9.63864 6.08906 9.62162C6.06423 9.60454 6.03539 9.59453 6.00547 9.59247C4.79364 9.50746 3.61696 9.65931 2.47547 10.048C2.45408 10.0554 2.43136 10.0583 2.40876 10.0567C2.38615 10.0551 2.36406 10.049 2.34388 10.0387C2.3237 10.0283 2.30581 10.0141 2.2913 9.99667C2.27678 9.97927 2.26589 9.95918 2.25934 9.93747L1.9768 9.02813C1.97005 9.00598 1.96776 8.98273 1.97012 8.95975C1.97247 8.93676 1.97947 8.91454 1.99055 8.89438C2.00169 8.87422 2.01678 8.85656 2.03486 8.84243C2.053 8.82831 2.07376 8.81803 2.09598 8.81225C3.16597 8.53917 4.25181 8.3658 5.35362 8.29215C5.37877 8.29048 5.40328 8.28329 5.42531 8.27103C5.44734 8.25876 5.46637 8.24181 5.48101 8.22133C5.49566 8.20085 5.50559 8.17735 5.51005 8.15256C5.5145 8.12771 5.51336 8.10229 5.5068 8.07795C5.21516 7.01168 5.04836 5.92608 5.00641 4.82123C5.00545 4.79835 5.00921 4.77552 5.01736 4.7541C5.02551 4.73269 5.03786 4.71314 5.05377 4.69663C5.06969 4.68011 5.08872 4.66698 5.10986 4.65802C5.13093 4.64905 5.15366 4.64444 5.17658 4.64446H6.07015C6.113 4.64436 6.15438 4.66058 6.18589 4.68989C6.21747 4.71919 6.23689 4.75942 6.24033 4.80254C6.32774 5.9969 6.55183 7.1652 6.91261 8.30744C6.92292 8.33851 6.94164 8.36606 6.96666 8.38686C6.99168 8.4076 7.02192 8.4207 7.05388 8.42475C8.91361 8.65931 10.6179 9.28934 12.1667 10.3148C12.4197 10.4826 12.5054 10.4202 12.4237 10.1279C11.9256 8.32612 11.8513 6.49665 12.2007 4.63936C12.2063 4.60761 12.2031 4.57504 12.1914 4.54531C12.1797 4.51558 12.1599 4.48988 12.1344 4.47108C11.179 3.76512 10.143 3.20647 9.02655 2.79513C8.98599 2.77976 8.95282 2.74969 8.9336 2.71092C8.91431 2.67215 8.91043 2.62756 8.92271 2.58606L9.18991 1.70559C9.1964 1.68366 9.20729 1.66329 9.22199 1.64572C9.2367 1.62816 9.25491 1.61377 9.27541 1.60343C9.29597 1.59309 9.31844 1.58702 9.34149 1.58559C9.36454 1.58416 9.38764 1.5874 9.40948 1.5951C10.4681 1.97358 11.4575 2.48237 12.3778 3.12148C12.3992 3.13663 12.4239 3.14658 12.4498 3.15053C12.4758 3.15449 12.5022 3.15233 12.5272 3.14424C12.5522 3.13616 12.5749 3.12235 12.5935 3.10394C12.6123 3.08553 12.6264 3.06301 12.6348 3.0382C13.0001 1.97755 13.5068 0.988854 14.1547 0.072122C14.1677 0.0536306 14.1843 0.037924 14.2035 0.0259205C14.2227 0.013917 14.2441 0.00585821 14.2664 0.0022174C14.2888 -0.00142342 14.3116 -0.00057414 14.3336 0.00471635C14.3557 0.0100068 14.3764 0.0196328 14.3946 0.0330283L15.1282 0.563351C15.1642 0.589151 15.1886 0.628085 15.1962 0.671881C15.2039 0.715679 15.1941 0.760896 15.169 0.797919C14.4939 1.78717 13.9862 2.85972 13.6458 4.01555C13.637 4.04577 13.6368 4.07782 13.6452 4.10812C13.6537 4.13844 13.6703 4.16582 13.6934 4.18723C15.0721 5.47451 16.0796 6.99864 16.7162 8.75954C16.8229 9.05535 16.9295 9.05535 17.0361 8.75954C17.6727 6.99864 18.678 5.47167 20.0521 4.17873C20.0752 4.15732 20.0918 4.12993 20.1003 4.09963C20.1087 4.06931 20.1085 4.03727 20.0997 4.00706C19.756 2.85802 19.2499 1.78944 18.5816 0.801316C18.5573 0.764935 18.548 0.72061 18.5557 0.677558C18.5632 0.634511 18.5872 0.596043 18.6224 0.57015L19.3441 0.0364272C19.3621 0.023033 19.3826 0.0133719 19.4045 0.00799987C19.4263 0.00262782 19.449 0.00165105 19.4714 0.00512744C19.4937 0.00860383 19.5151 0.0164646 19.5345 0.0282547C19.5538 0.0400449 19.5706 0.0555314 19.5841 0.0738223C20.2422 0.984893 20.7505 1.97302 21.1091 3.0382C21.1175 3.0632 21.1317 3.08589 21.1504 3.10448C21.1692 3.12307 21.192 3.13704 21.2172 3.14529C21.2422 3.15354 21.2689 3.15583 21.2951 3.15199C21.3212 3.14816 21.3461 3.13829 21.3678 3.12318C22.2914 2.47728 23.2842 1.96451 24.3463 1.5849C24.3682 1.57703 24.3916 1.57376 24.4149 1.5753C24.4382 1.57683 24.4609 1.58313 24.4817 1.59382C24.5024 1.60449 24.5208 1.61933 24.5355 1.63739C24.5503 1.65544 24.5612 1.67635 24.5675 1.69879L24.8194 2.59796C24.8311 2.63921 24.8266 2.68332 24.8071 2.72145C24.7875 2.75959 24.7542 2.78894 24.7139 2.80362C23.5985 3.20817 22.5654 3.76682 21.6145 4.47958C21.5895 4.49853 21.5702 4.52412 21.5588 4.55352C21.5473 4.58292 21.5443 4.61498 21.5499 4.64616C21.8948 6.50005 21.8194 8.32728 21.3235 10.1279C21.2429 10.418 21.3286 10.4803 21.5805 10.3148C23.1327 9.29614 24.8365 8.6638 26.6916 8.41794C26.7237 8.4139 26.7539 8.40093 26.7786 8.38044C26.8034 8.3599 26.8216 8.3328 26.8312 8.30236C27.2 7.16578 27.419 5.99973 27.4882 4.80424C27.4908 4.76095 27.5098 4.72029 27.5415 4.69059C27.5731 4.66089 27.6149 4.64439 27.6584 4.64446H28.5621C28.5851 4.64445 28.6078 4.64903 28.6289 4.65791C28.65 4.6668 28.6691 4.6798 28.685 4.69615C28.7008 4.71251 28.7133 4.73187 28.7214 4.75307C28.7295 4.77427 28.7332 4.79688 28.7324 4.81954C28.6949 5.92324 28.5349 7.00937 28.2524 8.07795C28.246 8.10216 28.2451 8.12745 28.2498 8.15205C28.2544 8.17658 28.2643 8.19988 28.2789 8.22017C28.2936 8.24047 28.3125 8.25729 28.3344 8.26942C28.3563 8.28156 28.3805 8.28875 28.4056 8.29042C29.5017 8.36522 30.5818 8.53634 31.6462 8.80378C31.6686 8.80949 31.6897 8.81964 31.708 8.83364C31.7264 8.8477 31.7417 8.86529 31.753 8.88533C31.7644 8.90536 31.7714 8.92745 31.7739 8.95024C31.7762 8.97304 31.7739 8.99609 31.7671 9.01792L31.4913 9.929C31.4847 9.95089 31.4738 9.97125 31.4592 9.98884C31.4446 10.0064 31.4266 10.0209 31.4063 10.0313C31.3859 10.0418 31.3637 10.048 31.3408 10.0498C31.318 10.0514 31.2951 10.0486 31.2734 10.0412C30.1308 9.66272 28.9542 9.51144 27.7435 9.58733C27.7131 9.58894 27.6838 9.59864 27.6587 9.61539C27.6335 9.63215 27.6134 9.65533 27.6005 9.68256C26.7836 11.3981 25.6267 12.8367 24.1301 13.9982C23.9384 14.1478 23.9633 14.2288 24.205 14.2413C26.0976 14.3455 27.8865 14.8316 29.5714 15.6997C29.5978 15.7136 29.6275 15.7201 29.6574 15.7186C29.6874 15.7172 29.7165 15.7076 29.7416 15.6911C30.7549 15.034 31.6201 14.2203 32.3372 13.2503C32.3504 13.2322 32.3671 13.2168 32.3864 13.2053C32.4057 13.1937 32.4271 13.1861 32.4495 13.1829C32.4719 13.1798 32.4947 13.181 32.5166 13.1868C32.5385 13.1925 32.5591 13.2026 32.5772 13.2163L33.309 13.7756C33.3446 13.8023 33.3681 13.8419 33.3744 13.8858C33.3808 13.9297 33.3695 13.9744 33.3431 14.0101C32.677 14.9246 31.8788 15.707 30.9483 16.3575C30.926 16.3732 30.9077 16.3942 30.8952 16.4186C30.8827 16.4429 30.8763 16.4699 30.8764 16.4973C30.8766 16.5247 30.8833 16.5516 30.8962 16.5758C30.909 16.6 30.9275 16.6207 30.9501 16.6363C31.885 17.2844 32.6816 18.0691 33.3397 18.9904C33.3652 19.0259 33.3758 19.0701 33.3691 19.1136C33.3624 19.1571 33.3391 19.1964 33.3039 19.2233L32.5772 19.7825C32.5593 19.796 32.539 19.8059 32.5173 19.8116C32.4955 19.8172 32.4729 19.8185 32.4506 19.8153C32.4283 19.8122 32.4068 19.8046 32.3873 19.7931C32.3679 19.7817 32.3508 19.7665 32.3372 19.7485C31.611 18.7807 30.7441 17.9621 29.7365 17.2924C29.7107 17.2753 29.6809 17.2656 29.6501 17.264C29.6192 17.2626 29.5885 17.2694 29.5612 17.2838C27.9136 18.162 26.1555 18.6533 24.2867 18.7575C23.986 18.7745 23.9542 18.8754 24.1914 19.0601C25.6619 20.2091 26.7983 21.6278 27.6005 23.3163C27.6135 23.3436 27.6335 23.3669 27.6587 23.3839C27.6838 23.401 27.713 23.4111 27.7435 23.4132C28.9519 23.4936 30.1274 23.3429 31.27 22.961C31.2916 22.9539 31.3143 22.9512 31.337 22.953C31.3596 22.9548 31.3816 22.9612 31.4017 22.9716C31.4219 22.9821 31.4398 22.9965 31.4543 23.0139C31.4687 23.0313 31.4796 23.0515 31.4862 23.0732L31.7619 23.9724C31.7686 23.9939 31.7709 24.0165 31.7685 24.039C31.7662 24.0614 31.7594 24.0831 31.7485 24.1029C31.7375 24.1228 31.7226 24.1402 31.7048 24.1543C31.6869 24.1684 31.6664 24.1788 31.6445 24.1849C30.5802 24.4726 29.4988 24.6477 28.4005 24.71C28.3751 24.7114 28.3504 24.7185 28.3282 24.7306C28.3059 24.7428 28.2867 24.7597 28.2719 24.7803C28.257 24.8008 28.247 24.8244 28.2424 24.8493C28.2379 24.8742 28.239 24.8998 28.2456 24.9242C28.5383 25.9906 28.6977 27.0767 28.7238 28.1826C28.7243 28.2052 28.7202 28.2277 28.7118 28.2488C28.7035 28.2698 28.691 28.2889 28.6752 28.305C28.6593 28.3212 28.6404 28.334 28.6195 28.3428C28.5987 28.3515 28.5762 28.356 28.5536 28.356H27.6584C27.6149 28.3561 27.5731 28.3396 27.5415 28.3099C27.5098 28.2802 27.4908 28.2395 27.4882 28.1963C27.419 26.9996 27.1983 25.833 26.8261 24.6965C26.8158 24.6659 26.7971 24.6388 26.7721 24.6184C26.7471 24.5979 26.7168 24.5849 26.6848 24.5809C24.8307 24.3452 23.1305 23.7174 21.5839 22.6976C21.3309 22.531 21.2447 22.5939 21.3252 22.8862C21.7507 24.4149 21.8614 25.973 21.6571 27.5606C21.6219 27.8325 21.5941 28.1062 21.5737 28.3815C21.5716 28.4097 21.5765 28.4381 21.5881 28.4639C21.5997 28.4897 21.6175 28.5122 21.6401 28.5294C22.5773 29.2478 23.6031 29.8037 24.7173 30.1968C24.7587 30.2117 24.7929 30.2416 24.8128 30.2805C24.8328 30.3194 24.837 30.3642 24.8245 30.4059L24.5624 31.3C24.5559 31.3223 24.5449 31.343 24.53 31.3609C24.5152 31.3788 24.4968 31.3934 24.4761 31.4039C24.4554 31.4144 24.4327 31.4206 24.4095 31.422C24.3863 31.4234 24.363 31.4201 24.3412 31.4122C23.2837 31.0326 22.2954 30.5215 21.3763 29.879C21.3546 29.8639 21.3297 29.854 21.3036 29.8502C21.2774 29.8464 21.2508 29.8486 21.2256 29.8569C21.2005 29.8651 21.1777 29.8791 21.159 29.8977C21.1402 29.9163 21.126 29.939 21.1176 29.964C20.7511 31.0246 20.2439 32.0122 19.596 32.9267C19.5829 32.9452 19.5662 32.961 19.547 32.9732C19.5277 32.9852 19.5063 32.9935 19.484 32.9972C19.4617 33.001 19.4389 33.0003 19.4169 32.9953C19.3949 32.9901 19.3742 32.9807 19.356 32.9674L18.6207 32.4303C18.5851 32.404 18.561 32.365 18.5534 32.3216C18.5458 32.2783 18.5553 32.2338 18.5799 32.1975C19.2528 31.2116 19.7593 30.1442 20.0997 28.9952C20.1085 28.9649 20.1087 28.9329 20.1003 28.9026C20.0918 28.8723 20.0752 28.8449 20.0521 28.8235C18.6792 27.5317 17.6739 26.0059 17.0361 24.246C16.9295 23.9514 16.8229 23.9514 16.7162 24.246C16.0785 26.0059 15.0704 27.5294 13.6917 28.8166C13.6687 28.8386 13.6522 28.8665 13.644 28.8971C13.636 28.9277 13.6365 28.9599 13.6458 28.99C13.985 30.1391 14.4905 31.2071 15.1623 32.1941C15.1871 32.2301 15.1969 32.2744 15.1896 32.3176C15.1823 32.3607 15.1585 32.3994 15.1231 32.4253L14.4014 32.9658C14.3834 32.9793 14.3629 32.9892 14.341 32.9947C14.3191 33.0003 14.2963 33.0015 14.274 32.9981C14.2516 32.9948 14.2302 32.9871 14.2109 32.9754C14.1915 32.9637 14.1747 32.9483 14.1615 32.9301C13.5023 32.0212 12.9961 31.0337 12.6433 29.9674C12.635 29.9423 12.621 29.9194 12.6023 29.9006C12.5837 29.8818 12.5608 29.8676 12.5357 29.8592C12.5106 29.8508 12.4838 29.8484 12.4576 29.8521C12.4314 29.8558 12.4064 29.8657 12.3846 29.8807C11.4587 30.5164 10.4664 31.028 9.40776 31.4156C9.3858 31.4235 9.36243 31.4269 9.33913 31.4254C9.31577 31.424 9.29298 31.4179 9.2721 31.4074C9.25128 31.3969 9.23275 31.3823 9.21773 31.3644C9.2027 31.3465 9.1915 31.3258 9.18481 31.3034L8.92271 30.4059C8.91062 30.3644 8.91475 30.3199 8.93436 30.2814C8.95397 30.2429 8.98752 30.2133 9.0282 30.1986C10.1459 29.7929 11.1801 29.2331 12.131 28.5192C12.1562 28.4998 12.1755 28.4738 12.1869 28.4441C12.1983 28.4144 12.2014 28.3822 12.1956 28.3509C11.8507 26.505 11.9267 24.6845 12.4237 22.8896C12.5043 22.5995 12.4186 22.5366 12.1667 22.701C10.6145 23.7186 8.90966 24.3463 7.05222 24.5843C7.02014 24.5884 6.9899 24.6013 6.96494 24.6218C6.93992 24.6422 6.9212 24.6693 6.91095 24.6999C6.54782 25.8387 6.3243 27.0047 6.24033 28.198C6.23772 28.2408 6.21868 28.2811 6.18704 28.3104C6.1554 28.3398 6.11357 28.3561 6.07015 28.356H5.1783C5.15557 28.3561 5.1331 28.3514 5.11221 28.3425C5.09127 28.3335 5.07242 28.3204 5.0567 28.3039C5.04091 28.2874 5.02869 28.2678 5.0206 28.2464C5.01258 28.225 5.00889 28.2022 5.00978 28.1792C5.04836 27.0767 5.21287 25.9934 5.50336 24.9293C5.51005 24.9048 5.51119 24.8792 5.50673 24.8542C5.50228 24.8293 5.49235 24.8057 5.47764 24.7852C5.463 24.7646 5.4439 24.7477 5.42187 24.7356C5.39978 24.7234 5.37533 24.7165 5.35019 24.7152C4.24614 24.646 3.16087 24.4698 2.09426 24.1865C2.0721 24.1809 2.05141 24.1709 2.03327 24.1569C2.01519 24.143 2.0001 24.1255 1.98896 24.1054C1.97782 24.0854 1.97088 24.0632 1.96846 24.0404C1.9661 24.0175 1.96833 23.9944 1.97514 23.9724L2.25596 23.0732C2.26297 23.0517 2.27411 23.0317 2.28875 23.0144C2.30346 22.9972 2.32135 22.983 2.34146 22.9728C2.36152 22.9625 2.38342 22.9563 2.40583 22.9546C2.4283 22.9529 2.45077 22.9556 2.4721 22.9627C3.61925 23.34 4.79816 23.4907 6.00885 23.4148C6.03922 23.4132 6.0685 23.4035 6.09371 23.3868C6.11886 23.37 6.13897 23.3469 6.15183 23.3197C6.97786 21.6063 8.13749 20.1672 9.63071 19.0023C9.82246 18.8538 9.79694 18.7728 9.55412 18.7592ZM13.302 5.97707C13.0807 8.97317 13.9226 11.5965 15.8278 13.8469C16.007 14.0589 16.1069 14.0266 16.1273 13.7501C16.3542 10.7709 15.5123 8.14768 13.6015 5.88019C13.4222 5.66715 13.3224 5.69944 13.302 5.97707ZM20.1406 5.88868C18.214 8.17202 17.3709 10.8265 17.6114 13.852C17.6285 14.0696 17.7079 14.0957 17.8497 13.9302C19.8047 11.6605 20.6683 9.01227 20.4402 5.98557C20.4197 5.70907 20.3199 5.67678 20.1406 5.88868ZM20.5083 12.8118C19.9454 13.3829 19.4644 14.0198 19.065 14.7223C18.9345 14.9535 18.998 15.0368 19.2556 14.9722C22.1569 14.2435 24.4019 12.6135 25.9904 10.0819C26.1368 9.84739 26.0755 9.76186 25.8066 9.8253C23.7506 10.3137 21.9844 11.3092 20.5083 12.8118ZM11.2443 11.2055C10.2242 10.5642 9.12637 10.1052 7.95083 9.8287C7.68192 9.76642 7.62067 9.85194 7.76703 10.0853C9.36804 12.6362 11.6385 14.2724 14.5785 14.9943C14.7872 15.0453 14.8372 14.9784 14.7282 14.7937C13.8591 13.316 12.6978 12.12 11.2443 11.2055ZM11.0196 15.5688C9.15075 15.3716 7.36653 15.6419 5.66678 16.3795C5.47045 16.4646 5.47159 16.5478 5.67016 16.6294C8.47281 17.7853 11.2777 17.7943 14.0849 16.6566C14.3424 16.5524 14.343 16.4475 14.0866 16.3422C13.1005 15.9387 12.0782 15.6809 11.0196 15.5688ZM28.0958 16.3727C25.2943 15.2011 22.4871 15.192 19.6743 16.3456C19.4167 16.4509 19.4173 16.5558 19.6759 16.66C22.49 17.7943 25.2966 17.7824 28.0958 16.6243C28.2966 16.5405 28.2966 16.4566 28.0958 16.3727ZM13.5896 19.7961C14.0298 19.3032 14.4156 18.7694 14.7469 18.1949C14.8536 18.0113 14.8037 17.9445 14.5972 17.9944C11.6175 18.723 9.3278 20.3876 7.72788 22.9882C7.61443 23.1718 7.6632 23.2392 7.87424 23.1905C10.1243 22.6771 12.0294 21.5457 13.5896 19.7961ZM24.3122 20.8091C22.8939 19.4278 21.1806 18.4986 19.1722 18.0215C18.9588 17.9717 18.9095 18.0396 19.0241 18.2255C20.6161 20.8046 22.8911 22.4573 25.8492 23.1837C26.0568 23.2347 26.1067 23.1678 25.9989 22.9831C25.519 22.1615 24.9567 21.4369 24.3122 20.8091ZM15.8294 19.1553C13.9061 21.4318 13.0654 24.0789 13.3071 27.0965C13.3241 27.313 13.4035 27.339 13.5454 27.1747C15.4959 24.9106 16.357 22.2698 16.129 19.2522C16.1086 18.9757 16.0087 18.9434 15.8294 19.1553ZM20.156 27.1373C20.3534 27.3696 20.4532 27.3333 20.4555 27.0285C20.46 26.6183 20.4606 26.2081 20.4572 25.7979C20.4515 25.2495 20.4181 24.7803 20.3568 24.3905C20.0379 22.3701 19.2176 20.6182 17.8957 19.1349C17.7164 18.9332 17.6177 18.9671 17.5995 19.2368C17.3896 22.2443 18.2417 24.8777 20.156 27.1373Z" fill="#098659"/>
<path d="M15.9243 3.70568C15.9259 4.60298 16.4275 5.32955 17.0447 5.32851C17.6619 5.32747 18.1609 4.59923 18.1593 3.70193C18.1577 2.80463 17.656 2.07807 17.0389 2.0791C16.4217 2.08014 15.9227 2.80838 15.9243 3.70568Z" fill="#098659"/>
<path d="M8.59349 6.68832C9.13131 7.40332 9.97137 7.70145 10.4698 7.35426C10.9682 7.00707 10.9363 6.146 10.3984 5.43099C9.86057 4.71598 9.02051 4.41781 8.52211 4.765C8.02366 5.11221 8.05562 5.97329 8.59349 6.68832Z" fill="#098659"/>
<path d="M23.6841 5.43601C23.1481 6.15118 23.1181 7.01171 23.6171 7.35809C24.1162 7.70446 24.9553 7.40546 25.4912 6.69028C26.0272 5.97512 26.0572 5.11458 25.5581 4.76822C25.059 4.42186 24.22 4.72085 23.6841 5.43601Z" fill="#098659"/>
<path d="M4.50297 13.2565C5.38908 13.527 6.2568 13.293 6.44111 12.7339C6.62542 12.1747 6.05654 11.5021 5.1705 11.2316C4.28439 10.9612 3.41667 11.1952 3.23236 11.7544C3.04805 12.3135 3.61693 12.986 4.50297 13.2565Z" fill="#098659"/>
<path d="M29.5741 13.2653C30.4599 13.0031 31.0322 12.3346 30.8524 11.7721C30.6726 11.2097 29.8088 10.9663 28.923 11.2286C28.0373 11.4908 27.4649 12.1593 27.6447 12.7218C27.8245 13.2842 28.6884 13.5276 29.5741 13.2653Z" fill="#098659"/>
<path d="M5.16531 20.8922C6.04685 20.6231 6.61206 19.9516 6.42769 19.3925C6.24338 18.8333 5.37933 18.5982 4.49779 18.8672C3.61624 19.1364 3.05103 19.8078 3.23534 20.367C3.41965 20.9262 4.28377 21.1613 5.16531 20.8922Z" fill="#098659"/>
<path d="M28.9167 20.8913C29.8047 21.1591 30.6723 20.9224 30.8546 20.3626C31.0368 19.8028 30.4648 19.1319 29.5768 18.8642C28.6889 18.5964 27.8213 18.8331 27.639 19.3929C27.4567 19.9527 28.0287 20.6236 28.9167 20.8913Z" fill="#098659"/>
<path d="M8.59211 25.4324C8.0543 26.1474 8.02291 27.0089 8.52208 27.3566C9.02131 27.7044 9.86195 27.4066 10.3998 26.6916C10.9376 25.9766 10.969 25.1151 10.4698 24.7674C9.97063 24.4196 9.12999 24.7174 8.59211 25.4324Z" fill="#098659"/>
<path d="M23.6894 26.6901C24.2275 27.4027 25.0665 27.6987 25.5636 27.3512C26.0605 27.0037 26.0273 26.1443 25.4893 25.4317C24.9513 24.7191 24.1122 24.4231 23.6152 24.7706C23.1182 25.1181 23.1514 25.9775 23.6894 26.6901Z" fill="#098659"/>
<path d="M15.9243 28.4143C15.9226 29.3134 16.4216 30.0431 17.0388 30.0442C17.656 30.0452 18.1576 29.3172 18.1593 28.418C18.1609 27.5189 17.6619 26.7891 17.0447 26.7881C16.4275 26.7871 15.9259 27.5152 15.9243 28.4143Z" fill="#098659"/>
<path d="M54.2884 8.0625L48.2664 14.8125H54.4179V15.75H46V14.6875L52.022 7.9375H46.1295V7H54.2884V8.0625ZM58.17 12.6875H62.1847L60.2421 8.0625H60.1126L58.17 12.6875ZM61.6666 7L65.3576 15.75H63.4927L62.6379 13.625H57.7167L56.862 15.75H54.9971L58.688 7H61.6666ZM70.2879 13.125V15.75H68.4101V13.125L64.2011 7H66.2732L69.3166 11.4375H69.3814L72.4248 7H74.4968L70.2879 13.125ZM83.4965 7.9375H79.9998V15.75H78.122V7.9375H74.6253V7H83.4965V7.9375ZM89.1958 15.125C89.6188 15.125 89.9987 15.0708 90.3354 14.9625C90.6807 14.8458 90.9743 14.6708 91.216 14.4375C91.4578 14.1958 91.6434 13.8917 91.7729 13.525C91.911 13.15 91.9801 12.7042 91.9801 12.1875V7H93.858V12.1875C93.858 13.4708 93.4522 14.4292 92.6406 15.0625C91.8291 15.6875 90.6807 16 89.1958 16C87.7021 16 86.5495 15.6875 85.7379 15.0625C84.935 14.4292 84.5335 13.4708 84.5335 12.1875V7H86.4114V12.1875C86.4114 12.7042 86.4761 13.15 86.6056 13.525C86.7438 13.8917 86.9337 14.1958 87.1755 14.4375C87.4172 14.6708 87.7064 14.8458 88.0432 14.9625C88.3885 15.0708 88.7727 15.125 89.1958 15.125ZM105 7V15.75H102.539L97.6829 8.625H97.5534V15.75H95.6756V7H98.1362L102.993 14.125H103.122V7H105Z" fill="#098659"/>
<path d="M50.4347 21.4544H48.6867V25.6774H47.748V21.4544H46V20.9476H50.4347V21.4544ZM51.8919 21.4544V23.0084H54.2549V23.5152H51.8919V25.1706H54.9023V25.6774H50.9532V20.9476H54.9023V21.4544H51.8919ZM57.9431 25.3057C58.2366 25.3057 58.5171 25.2539 58.7847 25.1503C59.0566 25.0422 59.3156 24.8688 59.5616 24.6301L59.8853 25.0355C59.6393 25.2742 59.3415 25.4634 58.9919 25.603C58.6423 25.7427 58.2711 25.8125 57.8784 25.8125C57.4726 25.8125 57.1058 25.7584 56.7778 25.6503C56.4541 25.5422 56.1757 25.3823 55.9426 25.1706C55.7138 24.9589 55.5369 24.6976 55.4118 24.3868C55.2866 24.076 55.224 23.7179 55.224 23.3125C55.224 22.9071 55.2844 22.549 55.4053 22.2382C55.5304 21.9274 55.7052 21.6661 55.9297 21.4544C56.1584 21.2427 56.4325 21.0828 56.7519 20.9747C57.0712 20.8666 57.4252 20.8125 57.8136 20.8125C58.2063 20.8125 58.5776 20.8823 58.9272 21.022C59.2768 21.1616 59.5746 21.3508 59.8206 21.5895L59.4969 21.9949C59.2509 21.7562 58.9919 21.585 58.72 21.4814C58.4524 21.3733 58.1718 21.3193 57.8784 21.3193C57.6453 21.3193 57.4273 21.3598 57.2245 21.4409C57.0216 21.5174 56.8468 21.6368 56.7001 21.799C56.5533 21.9611 56.4368 22.1684 56.3505 22.4206C56.2685 22.6684 56.2275 22.9657 56.2275 23.3125C56.2275 23.6593 56.2685 23.9589 56.3505 24.2111C56.4368 24.4589 56.5555 24.6639 56.7066 24.826C56.8619 24.9882 57.0432 25.1098 57.2504 25.1909C57.4618 25.2674 57.6928 25.3057 57.9431 25.3057ZM65 20.9476V25.6774H64.0613V23.6166H61.4069V25.6774H60.4682V20.9476H61.4069V23.1098H64.0613V20.9476H65Z" fill="#CDCEA7"/>
</svg>
