<svg width="364" height="375" viewBox="0 0 364 375" fill="none" xmlns="http://www.w3.org/2000/svg">
<g clip-path="url(#clip0_85_434)">
<path d="M137.393 114.123C125.774 113.53 114.819 110.541 104.528 105.157C104.364 105.069 104.179 105.027 103.994 105.034C103.808 105.041 103.629 105.098 103.474 105.199C97.2161 109.225 91.8864 114.216 87.4849 120.172C87.4002 120.284 87.2941 120.378 87.1723 120.448C87.051 120.519 86.9168 120.565 86.7779 120.583C86.6386 120.602 86.4974 120.592 86.3628 120.555C86.2278 120.518 86.1022 120.455 85.9933 120.368L81.5813 116.935C81.3682 116.771 81.2282 116.532 81.1911 116.267C81.1541 116.002 81.2231 115.734 81.3831 115.519C85.4647 109.969 90.3216 105.188 95.954 101.176C96.0898 101.082 96.2002 100.956 96.2766 100.811C96.3531 100.665 96.3929 100.503 96.3929 100.339C96.3929 100.174 96.3531 100.012 96.2766 99.8668C96.2002 99.7211 96.0898 99.5957 95.954 99.5012C90.3079 95.5098 85.4405 90.7496 81.3519 85.2207C81.1896 85.0039 81.1205 84.732 81.1595 84.4648C81.1989 84.1973 81.3429 83.9562 81.5602 83.7937L85.9933 80.4125C86.1041 80.3301 86.2306 80.2703 86.3648 80.2359C86.499 80.202 86.6382 80.1941 86.7748 80.2133C86.9113 80.2328 87.0428 80.2785 87.161 80.348C87.2792 80.4176 87.3822 80.5098 87.4638 80.6191C91.9071 86.4926 97.2231 91.4492 103.412 95.4891C103.567 95.5922 103.747 95.6512 103.935 95.6602C104.122 95.6695 104.309 95.6281 104.475 95.5406C114.6 90.2324 125.395 87.2922 136.861 86.7203C138.718 86.6305 138.916 86.0172 137.456 84.8797C128.451 77.8688 121.47 69.2238 116.512 58.9453C116.433 58.7793 116.311 58.6371 116.159 58.5336C116.006 58.4297 115.83 58.3687 115.646 58.3563C108.22 57.8391 101.009 58.7629 94.0138 61.1273C93.8827 61.1723 93.7435 61.1902 93.605 61.1805C93.4665 61.1707 93.3311 61.1336 93.2074 61.0707C93.0837 61.0078 92.9741 60.9211 92.8852 60.8152C92.7962 60.7094 92.7295 60.5871 92.6893 60.4551L90.9579 54.923C90.9165 54.7883 90.9025 54.6469 90.9169 54.507C90.9313 54.3672 90.9743 54.232 91.0421 54.1094C91.1104 53.9867 91.2029 53.8793 91.3137 53.7934C91.4249 53.7074 91.5521 53.6449 91.6882 53.6098C98.2453 51.9484 104.899 50.8938 111.652 50.4457C111.806 50.4356 111.956 50.3918 112.091 50.3172C112.226 50.2426 112.343 50.1395 112.432 50.0148C112.522 49.8902 112.583 49.7473 112.61 49.5965C112.638 49.4453 112.63 49.2906 112.59 49.1426C110.803 42.6559 109.781 36.0516 109.524 29.3302C109.518 29.191 109.541 29.0521 109.591 28.9218C109.641 28.7915 109.717 28.6726 109.814 28.5721C109.912 28.4717 110.028 28.3918 110.158 28.3373C110.287 28.2827 110.426 28.2547 110.567 28.2548H116.043C116.305 28.2542 116.559 28.3529 116.752 28.5311C116.945 28.7094 117.064 28.9542 117.086 29.2164C117.621 36.4824 118.994 43.5898 121.205 50.5387C121.269 50.7277 121.383 50.8953 121.537 51.0219C121.69 51.148 121.875 51.2277 122.071 51.2523C133.468 52.6793 143.912 56.5121 153.404 62.7508C154.954 63.7711 155.479 63.3918 154.979 61.6133C151.926 50.6523 151.47 39.5227 153.612 28.2238C153.646 28.0306 153.626 27.8325 153.555 27.6516C153.483 27.4707 153.362 27.3144 153.205 27.2C147.351 22.9053 141.002 19.5067 134.16 17.0043C133.911 16.9108 133.708 16.7279 133.59 16.492C133.472 16.2562 133.448 15.9849 133.524 15.7324L135.161 10.376C135.201 10.2426 135.268 10.1187 135.358 10.0118C135.448 9.905 135.559 9.81746 135.685 9.75457C135.811 9.69164 135.949 9.65473 136.09 9.64602C136.231 9.6373 136.373 9.65699 136.507 9.70387C142.994 12.0064 149.057 15.1016 154.697 18.9897C154.828 19.0818 154.979 19.1424 155.138 19.1664C155.297 19.1905 155.46 19.1773 155.613 19.1281C155.765 19.0789 155.905 18.995 156.019 18.883C156.134 18.7709 156.22 18.634 156.272 18.483C158.511 12.0305 161.616 6.01574 165.586 0.438758C165.666 0.326264 165.767 0.230712 165.885 0.157688C166.003 0.0846648 166.134 0.0356387 166.271 0.0134897C166.408 -0.00865941 166.548 -0.00349281 166.683 0.0286921C166.818 0.060877 166.945 0.119437 167.056 0.200929L171.552 3.42717C171.772 3.58412 171.922 3.82098 171.969 4.08742C172.016 4.35387 171.956 4.62895 171.802 4.85418C167.665 10.8723 164.553 17.3972 162.467 24.4288C162.414 24.6126 162.413 24.8076 162.464 24.992C162.516 25.1764 162.618 25.3429 162.76 25.4732C171.208 33.3044 177.382 42.5766 181.283 53.2891C181.937 55.0887 182.591 55.0887 183.244 53.2891C187.145 42.5766 193.306 33.2872 201.727 25.4215C201.868 25.2913 201.97 25.1246 202.022 24.9403C202.073 24.7559 202.072 24.5609 202.018 24.3771C199.912 17.3869 196.81 10.8861 192.715 4.87484C192.566 4.65352 192.509 4.38387 192.556 4.12195C192.602 3.86008 192.749 3.62605 192.965 3.46854L197.387 0.221607C197.498 0.140122 197.624 0.0813488 197.758 0.0486676C197.892 0.0159865 198.031 0.0100442 198.168 0.031193C198.304 0.0523418 198.436 0.100163 198.554 0.171889C198.673 0.243615 198.776 0.337828 198.858 0.449102C202.891 5.99164 206.006 12.0029 208.204 18.483C208.256 18.6351 208.342 18.7732 208.457 18.8862C208.572 18.9993 208.712 19.0843 208.866 19.1345C209.02 19.1847 209.183 19.1986 209.344 19.1753C209.504 19.152 209.656 19.092 209.789 19C215.449 15.0706 221.534 11.9512 228.042 9.64184C228.176 9.59395 228.32 9.57406 228.462 9.5834C228.605 9.59273 228.745 9.63105 228.872 9.69605C228.999 9.76101 229.111 9.85125 229.202 9.96113C229.292 10.071 229.359 10.1981 229.398 10.3346L230.941 15.8048C231.013 16.0558 230.986 16.3241 230.866 16.5561C230.746 16.7881 230.542 16.9666 230.295 17.056C223.46 19.517 217.129 22.9156 211.301 27.2518C211.148 27.367 211.029 27.5227 210.96 27.7016C210.889 27.8804 210.871 28.0755 210.905 28.2651C213.019 39.5434 212.557 50.6594 209.518 61.6133C209.024 63.3781 209.549 63.7574 211.093 62.7508C220.605 56.5535 231.046 52.7066 242.415 51.2109C242.611 51.1863 242.796 51.1074 242.948 50.9828C243.099 50.8578 243.211 50.693 243.27 50.5078C245.53 43.5934 246.872 36.4996 247.296 29.2268C247.312 28.9634 247.429 28.7161 247.623 28.5354C247.817 28.3547 248.073 28.2543 248.339 28.2548H253.877C254.018 28.2547 254.157 28.2826 254.287 28.3366C254.416 28.3907 254.533 28.4698 254.63 28.5693C254.727 28.6687 254.804 28.7865 254.853 28.9155C254.903 29.0445 254.926 29.182 254.921 29.3199C254.691 36.0343 253.711 42.6418 251.979 49.1426C251.94 49.2898 251.935 49.4437 251.963 49.5934C251.991 49.7426 252.052 49.8844 252.142 50.0078C252.232 50.1313 252.348 50.2336 252.482 50.3074C252.616 50.3813 252.765 50.425 252.918 50.4352C259.635 50.8902 266.254 51.9312 272.777 53.5582C272.915 53.593 273.044 53.6547 273.156 53.7398C273.269 53.8254 273.362 53.9324 273.432 54.0543C273.501 54.1762 273.545 54.3105 273.559 54.4492C273.574 54.5879 273.56 54.7281 273.518 54.8609L271.828 60.4035C271.787 60.5367 271.721 60.6605 271.631 60.7676C271.542 60.8742 271.431 60.9625 271.307 61.0262C271.182 61.0898 271.046 61.1277 270.906 61.1383C270.766 61.1484 270.626 61.1309 270.493 61.0859C263.491 58.7836 256.28 57.8633 248.861 58.325C248.674 58.3348 248.495 58.3937 248.341 58.4957C248.186 58.5977 248.063 58.7387 247.984 58.9043C242.978 69.341 235.889 78.0926 226.717 85.1586C225.542 86.0687 225.695 86.5617 227.176 86.6375C238.775 87.2715 249.737 90.2289 260.063 95.5098C260.224 95.5941 260.406 95.634 260.59 95.625C260.773 95.616 260.951 95.5582 261.105 95.4578C267.315 91.4598 272.617 86.5098 277.012 80.609C277.093 80.4984 277.195 80.4051 277.313 80.3348C277.431 80.2645 277.563 80.218 277.7 80.1988C277.837 80.1797 277.977 80.1875 278.111 80.2227C278.245 80.2574 278.372 80.3184 278.482 80.402L282.967 83.8043C283.185 83.9668 283.329 84.2078 283.368 84.475C283.407 84.7422 283.338 85.0141 283.176 85.2312C279.094 90.7945 274.202 95.5543 268.501 99.5113C268.364 99.6074 268.252 99.7352 268.175 99.8832C268.098 100.031 268.059 100.196 268.06 100.362C268.061 100.529 268.102 100.692 268.181 100.839C268.259 100.987 268.373 101.113 268.511 101.207C274.241 105.15 279.122 109.924 283.155 115.529C283.312 115.745 283.377 116.014 283.336 116.279C283.295 116.543 283.151 116.782 282.936 116.946L278.482 120.348C278.373 120.43 278.249 120.49 278.115 120.525C277.982 120.559 277.843 120.567 277.707 120.547C277.57 120.528 277.438 120.482 277.319 120.413C277.2 120.343 277.095 120.25 277.012 120.141C272.561 114.254 267.249 109.273 261.074 105.199C260.916 105.095 260.733 105.036 260.544 105.027C260.355 105.018 260.167 105.059 260 105.147C249.903 110.489 239.129 113.478 227.677 114.112C225.834 114.216 225.639 114.829 227.093 115.953C236.105 122.943 243.069 131.574 247.984 141.846C248.064 142.012 248.187 142.154 248.341 142.257C248.495 142.361 248.674 142.422 248.861 142.435C256.266 142.925 263.47 142.007 270.472 139.684C270.604 139.641 270.743 139.625 270.882 139.636C271.021 139.647 271.156 139.686 271.279 139.749C271.403 139.812 271.512 139.9 271.601 140.006C271.69 140.112 271.756 140.235 271.796 140.367L273.486 145.837C273.527 145.968 273.541 146.105 273.527 146.242C273.513 146.379 273.471 146.511 273.404 146.631C273.337 146.752 273.245 146.858 273.136 146.944C273.027 147.029 272.901 147.093 272.767 147.13C266.244 148.88 259.617 149.946 252.887 150.325C252.731 150.333 252.58 150.376 252.444 150.45C252.307 150.524 252.19 150.627 252.099 150.752C252.008 150.877 251.946 151.02 251.918 151.172C251.89 151.323 251.897 151.479 251.938 151.628C253.731 158.115 254.708 164.722 254.868 171.45C254.871 171.588 254.846 171.725 254.795 171.853C254.744 171.98 254.667 172.097 254.57 172.195C254.473 172.293 254.357 172.371 254.229 172.425C254.101 172.478 253.964 172.505 253.825 172.505H248.339C248.073 172.506 247.817 172.405 247.623 172.225C247.429 172.044 247.312 171.796 247.296 171.533C246.872 164.254 245.519 157.156 243.239 150.242C243.175 150.056 243.061 149.891 242.908 149.767C242.755 149.643 242.569 149.564 242.373 149.539C231.011 148.105 220.591 144.286 211.114 138.082C209.563 137.068 209.035 137.451 209.528 139.229C212.136 148.529 212.814 158.008 211.562 167.666C211.347 169.32 211.176 170.985 211.051 172.66C211.038 172.832 211.069 173.004 211.14 173.161C211.211 173.318 211.32 173.455 211.458 173.56C217.201 177.93 223.487 181.312 230.316 183.704C230.569 183.794 230.779 183.976 230.901 184.213C231.023 184.449 231.049 184.722 230.973 184.976L229.366 190.415C229.327 190.551 229.259 190.677 229.168 190.786C229.077 190.894 228.965 190.983 228.837 191.047C228.711 191.111 228.572 191.148 228.429 191.157C228.287 191.166 228.145 191.146 228.011 191.098C221.53 188.788 215.474 185.679 209.841 181.77C209.708 181.679 209.556 181.618 209.396 181.595C209.236 181.572 209.072 181.586 208.918 181.636C208.764 181.686 208.624 181.771 208.51 181.884C208.394 181.997 208.307 182.135 208.256 182.288C206.01 188.74 202.902 194.748 198.931 200.311C198.851 200.424 198.749 200.52 198.631 200.594C198.513 200.667 198.382 200.717 198.245 200.74C198.108 200.763 197.968 200.759 197.834 200.728C197.699 200.697 197.572 200.639 197.46 200.559L192.955 197.291C192.737 197.131 192.589 196.894 192.542 196.63C192.496 196.366 192.554 196.096 192.704 195.875C196.828 189.877 199.932 183.384 202.018 176.393C202.072 176.209 202.073 176.014 202.022 175.83C201.97 175.646 201.868 175.479 201.727 175.349C193.313 167.49 187.152 158.208 183.244 147.502C182.591 145.709 181.937 145.709 181.283 147.502C177.376 158.208 171.197 167.476 162.749 175.307C162.608 175.441 162.507 175.611 162.457 175.797C162.407 175.983 162.411 176.179 162.467 176.362C164.546 183.352 167.644 189.85 171.761 195.854C171.913 196.073 171.973 196.343 171.928 196.605C171.884 196.868 171.737 197.103 171.521 197.261L167.098 200.549C166.988 200.631 166.862 200.691 166.728 200.725C166.593 200.759 166.454 200.766 166.317 200.746C166.18 200.725 166.049 200.679 165.931 200.607C165.812 200.536 165.709 200.443 165.628 200.332C161.588 194.803 158.486 188.795 156.324 182.308C156.273 182.155 156.187 182.016 156.073 181.902C155.959 181.788 155.819 181.701 155.665 181.65C155.511 181.599 155.347 181.584 155.186 181.607C155.025 181.629 154.872 181.689 154.739 181.781C149.064 185.648 142.984 188.761 136.496 191.118C136.361 191.166 136.218 191.187 136.076 191.178C135.932 191.17 135.793 191.132 135.665 191.068C135.537 191.005 135.424 190.916 135.332 190.807C135.239 190.698 135.171 190.572 135.13 190.436L133.524 184.976C133.45 184.723 133.475 184.453 133.595 184.218C133.715 183.984 133.921 183.804 134.17 183.714C141.019 181.246 147.358 177.841 153.184 173.498C153.339 173.38 153.457 173.222 153.527 173.041C153.597 172.861 153.616 172.664 153.581 172.474C151.467 161.245 151.933 150.17 154.979 139.25C155.472 137.485 154.947 137.103 153.404 138.102C143.891 144.293 133.444 148.112 122.061 149.56C121.864 149.584 121.679 149.663 121.526 149.788C121.373 149.912 121.258 150.077 121.195 150.263C118.97 157.191 117.6 164.284 117.086 171.544C117.07 171.804 116.953 172.049 116.759 172.228C116.565 172.407 116.309 172.506 116.043 172.505H110.577C110.438 172.505 110.3 172.477 110.172 172.423C110.044 172.368 109.928 172.289 109.832 172.188C109.735 172.087 109.66 171.969 109.611 171.838C109.562 171.708 109.539 171.569 109.544 171.43C109.781 164.722 110.789 158.132 112.569 151.659C112.61 151.51 112.617 151.354 112.59 151.202C112.563 151.05 112.502 150.907 112.412 150.782C112.322 150.657 112.205 150.554 112.07 150.48C111.934 150.406 111.785 150.364 111.631 150.356C104.865 149.935 98.2141 148.863 91.6777 147.14C91.5419 147.106 91.4151 147.045 91.3039 146.96C91.1931 146.875 91.1007 146.768 91.0324 146.646C90.9641 146.525 90.9216 146.39 90.9068 146.251C90.8923 146.112 90.906 145.971 90.9477 145.837L92.6686 140.367C92.7115 140.236 92.7798 140.114 92.8696 140.009C92.9597 139.905 93.0693 139.818 93.1926 139.756C93.3155 139.693 93.4497 139.656 93.587 139.645C93.7247 139.635 93.8625 139.652 93.9932 139.695C101.023 141.99 108.248 142.907 115.667 142.445C115.853 142.436 116.033 142.377 116.187 142.275C116.341 142.173 116.464 142.032 116.543 141.866C121.605 131.443 128.712 122.688 137.862 115.601C139.037 114.698 138.881 114.205 137.393 114.123ZM160.361 36.3618C159.004 54.5887 164.164 70.5477 175.839 84.2383C176.938 85.5277 177.549 85.3313 177.675 83.6492C179.065 65.5254 173.906 49.5668 162.196 35.7724C161.098 34.4764 160.486 34.6728 160.361 36.3618ZM202.269 35.8241C190.462 49.7148 185.296 65.8633 186.769 84.2695C186.874 85.593 187.361 85.7516 188.23 84.7453C200.211 70.9371 205.502 54.8266 204.105 36.4135C203.979 34.7314 203.368 34.535 202.269 35.8241ZM204.522 77.941C201.073 81.4156 198.125 85.2898 195.677 89.5637C194.877 90.9703 195.267 91.477 196.845 91.084C214.625 86.6512 228.383 76.7348 238.118 61.334C239.015 59.907 238.639 59.3867 236.991 59.7727C224.391 62.7438 213.568 68.8 204.522 77.941ZM147.75 68.1691C141.499 64.2676 134.772 61.4754 127.568 59.7934C125.92 59.4145 125.544 59.9348 126.441 61.3547C136.253 76.8727 150.167 86.827 168.183 91.2184C169.462 91.5285 169.768 91.1219 169.101 89.998C163.775 81.0086 156.658 73.7324 147.75 68.1691ZM146.374 94.7133C134.921 93.5141 123.987 95.1582 113.571 99.6457C112.368 100.163 112.375 100.67 113.591 101.166C130.767 108.198 147.955 108.253 165.158 101.331C166.737 100.697 166.74 100.059 165.169 99.4184C159.126 96.9641 152.861 95.3957 146.374 94.7133ZM251.02 99.6043C233.851 92.4766 216.649 92.4211 199.411 99.4391C197.833 100.08 197.836 100.718 199.421 101.352C216.666 108.253 233.866 108.18 251.02 101.135C252.25 100.625 252.25 100.114 251.02 99.6043ZM162.123 120.43C164.821 117.432 167.185 114.185 169.216 110.689C169.869 109.573 169.563 109.166 168.298 109.47C150.038 113.902 136.006 124.029 126.201 139.85C125.506 140.967 125.805 141.377 127.098 141.08C140.887 137.957 152.562 131.074 162.123 120.43ZM227.833 126.593C219.142 118.19 208.642 112.537 196.334 109.635C195.027 109.332 194.724 109.745 195.427 110.876C205.182 126.566 219.124 136.62 237.252 141.039C238.524 141.349 238.83 140.943 238.17 139.819C235.228 134.821 231.783 130.413 227.833 126.593ZM175.849 116.532C164.063 130.381 158.911 146.485 160.392 164.843C160.496 166.16 160.983 166.318 161.852 165.319C173.805 151.545 179.083 135.479 177.685 117.121C177.56 115.439 176.948 115.243 175.849 116.532ZM202.363 165.091C203.573 166.504 204.184 166.284 204.199 164.429C204.226 161.934 204.23 159.438 204.209 156.943C204.174 153.606 203.969 150.752 203.593 148.381C201.64 136.089 196.612 125.432 188.511 116.408C187.413 115.181 186.808 115.388 186.696 117.028C185.41 135.324 190.632 151.345 202.363 165.091Z" fill="#098659"/>
<path d="M175.474 23.1583C175.484 28.7665 178.527 33.3075 182.271 33.301C186.016 33.2945 189.043 28.743 189.033 23.1349C189.023 17.5267 185.98 12.9857 182.236 12.9922C178.491 12.9987 175.464 17.5502 175.474 23.1583Z" fill="#098659"/>
<path d="M131.001 41.8003C134.263 46.2691 139.36 48.1323 142.383 45.9624C145.407 43.7925 145.213 38.4108 141.95 33.942C138.688 29.4732 133.591 27.6096 130.568 29.7796C127.544 31.9496 127.737 37.3313 131.001 41.8003Z" fill="#098659"/>
<path d="M222.55 33.9724C219.298 38.4422 219.116 43.8205 222.144 45.9854C225.171 48.1502 230.262 46.2815 233.513 41.8115C236.765 37.3418 236.947 31.9635 233.919 29.7987C230.891 27.634 225.801 29.5026 222.55 33.9724Z" fill="#098659"/>
<path d="M106.185 82.8519C111.56 84.5426 116.824 83.0801 117.943 79.5851C119.061 76.0902 115.61 71.8867 110.234 70.1961C104.859 68.5058 99.5944 69.9683 98.4762 73.4633C97.3581 76.9578 100.809 81.1613 106.185 82.8519Z" fill="#098659"/>
<path d="M258.283 82.9097C263.657 81.2707 267.128 77.0926 266.038 73.5773C264.947 70.0621 259.706 68.541 254.333 70.1801C248.959 71.8187 245.487 75.9972 246.578 79.5125C247.669 83.0277 252.909 84.5488 258.283 82.9097Z" fill="#098659"/>
<path d="M110.203 130.574C115.551 128.892 118.98 124.695 117.861 121.201C116.743 117.706 111.501 116.236 106.153 117.918C100.805 119.6 97.3764 123.796 98.4946 127.291C99.6127 130.786 104.855 132.256 110.203 130.574Z" fill="#098659"/>
<path d="M254.295 130.571C259.682 132.245 264.945 130.765 266.051 127.266C267.157 123.768 263.687 119.575 258.3 117.901C252.913 116.227 247.649 117.707 246.543 121.205C245.437 124.704 248.908 128.897 254.295 130.571Z" fill="#098659"/>
<path d="M130.992 158.953C127.729 163.422 127.539 168.806 130.567 170.98C133.596 173.153 138.696 171.292 141.959 166.823C145.222 162.355 145.412 156.97 142.383 154.797C139.355 152.623 134.255 154.484 130.992 158.953Z" fill="#098659"/>
<path d="M222.582 166.811C225.847 171.265 230.937 173.115 233.952 170.943C236.967 168.771 236.765 163.4 233.502 158.946C230.238 154.492 225.147 152.642 222.132 154.814C219.117 156.986 219.318 162.357 222.582 166.811Z" fill="#098659"/>
<path d="M175.474 177.591C175.464 183.211 178.491 187.771 182.235 187.778C185.98 187.784 189.023 183.234 189.033 177.615C189.043 171.995 186.015 167.434 182.271 167.428C178.527 167.421 175.484 171.972 175.474 177.591Z" fill="#098659"/>
<path d="M52.6688 255.469L16.3858 297.656H53.4491V303.516H2.73097V296.875L39.0139 254.688H3.51125V248.828H52.6688V255.469ZM76.0557 284.375H100.244L88.5402 255.469H87.7599L76.0557 284.375ZM97.1232 248.828L119.361 303.516H108.125L102.975 290.234H73.3247L68.1749 303.516H56.9389L79.1768 248.828H97.1232ZM149.067 287.109V303.516H137.753V287.109L112.394 248.828H124.878L143.215 276.562H143.605L161.941 248.828H174.426L149.067 287.109ZM228.649 254.688H207.581V303.516H196.267V254.688H175.2V248.828H228.649V254.688ZM262.987 299.609C265.536 299.609 267.825 299.271 269.854 298.594C271.935 297.864 273.703 296.771 275.16 295.312C276.616 293.802 277.735 291.901 278.515 289.609C279.347 287.266 279.763 284.479 279.763 281.25V248.828H291.077V281.25C291.077 289.271 288.632 295.261 283.743 299.219C278.853 303.125 271.935 305.078 262.987 305.078C253.988 305.078 247.044 303.125 242.154 299.219C237.316 295.261 234.897 289.271 234.897 281.25V248.828H246.211V281.25C246.211 284.479 246.602 287.266 247.382 289.609C248.214 291.901 249.359 293.802 250.815 295.312C252.271 296.771 254.014 297.864 256.043 298.594C258.124 299.271 260.439 299.609 262.987 299.609ZM358.209 248.828V303.516H343.383L314.123 258.984H313.343V303.516H302.029V248.828H316.854L346.114 293.359H346.895V248.828H358.209Z" fill="#098659"/>
<path d="M150.399 338.867H139.865V363.281H134.208V338.867H123.674V335.938H150.399V338.867ZM159.18 338.867V347.852H173.42V350.781H159.18V360.352H177.321V363.281H153.523V335.938H177.321V338.867H159.18ZM195.646 361.133C197.414 361.133 199.105 360.833 200.718 360.234C202.356 359.609 203.917 358.607 205.399 357.227L207.35 359.57C205.868 360.95 204.073 362.044 201.966 362.852C199.859 363.659 197.622 364.062 195.256 364.062C192.811 364.062 190.6 363.75 188.623 363.125C186.673 362.5 184.995 361.575 183.591 360.352C182.212 359.128 181.146 357.617 180.391 355.82C179.637 354.023 179.26 351.953 179.26 349.609C179.26 347.266 179.624 345.195 180.352 343.398C181.107 341.602 182.16 340.091 183.513 338.867C184.891 337.643 186.542 336.719 188.467 336.094C190.392 335.469 192.525 335.156 194.866 335.156C197.232 335.156 199.469 335.56 201.576 336.367C203.683 337.175 205.477 338.268 206.96 339.648L205.009 341.992C203.527 340.612 201.966 339.622 200.328 339.023C198.715 338.398 197.024 338.086 195.256 338.086C193.851 338.086 192.538 338.32 191.315 338.789C190.093 339.232 189.039 339.922 188.155 340.859C187.271 341.797 186.569 342.995 186.048 344.453C185.554 345.886 185.307 347.604 185.307 349.609C185.307 351.614 185.554 353.346 186.048 354.805C186.569 356.237 187.284 357.422 188.194 358.359C189.131 359.297 190.223 360 191.471 360.469C192.746 360.911 194.137 361.133 195.646 361.133ZM238.172 335.938V363.281H232.515V351.367H216.52V363.281H210.863V335.938H216.52V348.438H232.515V335.938H238.172Z" fill="#CDCEA7"/>
</g>
<defs>
<clipPath id="clip0_85_434">
<rect width="364" height="375" fill="white"/>
</clipPath>
</defs>
</svg>
