<svg width="32" height="32" viewBox="0 0 32 32" fill="none" xmlns="http://www.w3.org/2000/svg">
    <path d="M8.89984 18.1908C7.06128 18.0963 5.32779 17.6199 3.69937 16.7617C3.67344 16.7477 3.64424 16.7409 3.61485 16.7421C3.58553 16.7432 3.55713 16.7523 3.53269 16.7683C2.54241 17.41 1.69906 18.2056 1.00258 19.155C0.989184 19.1728 0.972392 19.1878 0.953131 19.1991C0.933931 19.2103 0.912695 19.2176 0.890717 19.2206C0.868678 19.2235 0.846331 19.222 0.825033 19.2161C0.803673 19.2102 0.783795 19.2001 0.766571 19.1863L0.0684205 18.6391C0.0347137 18.613 0.0125512 18.5748 0.0066865 18.5325C0.00082177 18.4904 0.011749 18.4475 0.0370599 18.4133C0.682921 17.5287 1.45145 16.7667 2.3427 16.1271C2.36419 16.1121 2.38166 16.0921 2.39376 16.0689C2.40586 16.0456 2.41215 16.0199 2.41215 15.9936C2.41215 15.9674 2.40586 15.9417 2.39376 15.9184C2.38166 15.8952 2.36419 15.8752 2.3427 15.8602C1.44929 15.2239 0.679094 14.4652 0.0321211 13.5839C0.00643973 13.5493 -0.00448791 13.506 0.0016855 13.4634C0.00792063 13.4208 0.030701 13.3823 0.0650868 13.3564L0.766571 12.8175C0.784104 12.8043 0.804105 12.7948 0.825342 12.7893C0.846578 12.7839 0.868617 12.7827 0.890224 12.7857C0.911831 12.7888 0.932635 12.7961 0.951341 12.8072C0.970046 12.8183 0.986344 12.833 0.999246 12.8504C1.70234 13.7866 2.54352 14.5767 3.52275 15.2206C3.54732 15.2371 3.5759 15.2465 3.60553 15.2479C3.63523 15.2494 3.6648 15.2428 3.6911 15.2289C5.29316 14.3827 7.00134 13.9141 8.8157 13.8229C9.10949 13.8086 9.14085 13.7109 8.90978 13.5295C7.4849 12.412 6.38023 11.034 5.59572 9.39568C5.58318 9.36922 5.56386 9.34656 5.53978 9.33006C5.51571 9.3135 5.48774 9.30378 5.45873 9.30179C4.28362 9.21935 3.14259 9.36661 2.0357 9.74349C2.01496 9.75065 1.99292 9.75352 1.971 9.75196C1.94909 9.7504 1.92766 9.74449 1.90809 9.73446C1.88853 9.72444 1.87118 9.71062 1.8571 9.69374C1.84303 9.67687 1.83247 9.65738 1.82611 9.63634L1.55214 8.75455C1.54559 8.73307 1.54337 8.71053 1.54565 8.68824C1.54794 8.66595 1.55473 8.6444 1.56547 8.62485C1.57627 8.6053 1.59091 8.58818 1.60844 8.57448C1.62603 8.56078 1.64616 8.55082 1.6677 8.54522C2.70527 8.28041 3.7582 8.11229 4.82663 8.04088C4.85102 8.03926 4.87479 8.03228 4.89615 8.02039C4.91751 8.0085 4.93596 7.99206 4.95016 7.9722C4.96436 7.95234 4.97399 7.92955 4.97831 7.90551C4.98263 7.88142 4.98152 7.85676 4.97516 7.83316C4.69236 6.7992 4.53062 5.7465 4.48994 4.67513C4.48901 4.65294 4.49265 4.6308 4.50055 4.61004C4.50846 4.58927 4.52043 4.57031 4.53587 4.5543C4.5513 4.53829 4.56976 4.52556 4.59025 4.51687C4.61069 4.50817 4.63273 4.5037 4.65495 4.50372H5.52145C5.563 4.50362 5.60312 4.51935 5.63368 4.54777C5.6643 4.57618 5.68313 4.6152 5.68646 4.657C5.77123 5.81518 5.98853 6.94807 6.33838 8.05569C6.34838 8.08583 6.36653 8.11254 6.39079 8.13272C6.41505 8.15283 6.44437 8.16553 6.47536 8.16945C8.27874 8.3969 9.93136 9.00784 11.4333 10.0023C11.6786 10.1649 11.7617 10.1044 11.6825 9.82095C11.1994 8.07381 11.1274 6.29978 11.4663 4.49878C11.4717 4.46799 11.4685 4.4364 11.4572 4.40757C11.4458 4.37874 11.4267 4.35382 11.4019 4.3356C10.4755 3.65102 9.47088 3.1093 8.38826 2.71043C8.34893 2.69552 8.31677 2.66636 8.29812 2.62877C8.27942 2.59118 8.27565 2.54794 8.28757 2.5077L8.54666 1.6539C8.55296 1.63264 8.56352 1.61288 8.57778 1.59585C8.59204 1.57882 8.60969 1.56487 8.62957 1.55485C8.64951 1.54481 8.6713 1.53893 8.69365 1.53754C8.716 1.53615 8.73841 1.53929 8.75958 1.54676C9.78616 1.91377 10.7456 2.40715 11.6379 3.02689C11.6587 3.04158 11.6826 3.05123 11.7078 3.05506C11.7329 3.0589 11.7586 3.0568 11.7828 3.04896C11.807 3.04112 11.8291 3.02773 11.8471 3.00988C11.8653 2.99202 11.879 2.97019 11.8872 2.94613C12.2414 1.91762 12.7327 0.958889 13.361 0.0699365C13.3736 0.0520055 13.3897 0.0367747 13.4083 0.025135C13.4269 0.0134953 13.4477 0.00568068 13.4693 0.0021502C13.491 -0.00138028 13.5132 -0.000556742 13.5345 0.00457343C13.5559 0.00970358 13.576 0.0190379 13.5937 0.0320275L14.305 0.54628C14.3399 0.571297 14.3636 0.609052 14.371 0.651521C14.3784 0.693992 14.3689 0.737838 14.3446 0.77374C13.69 1.73302 13.1976 2.77306 12.8675 3.89387C12.859 3.92317 12.8588 3.95424 12.867 3.98363C12.8751 4.01303 12.8913 4.03958 12.9137 4.06034C14.2506 5.30861 15.2276 6.78656 15.8449 8.4941C15.9483 8.78095 16.0517 8.78095 16.1551 8.4941C16.7724 6.78656 17.7473 5.30587 19.0797 4.0521C19.1021 4.03134 19.1182 4.00478 19.1264 3.9754C19.1345 3.946 19.1344 3.91493 19.1259 3.88563C18.7925 2.77142 18.3018 1.73521 17.6537 0.777034C17.6302 0.741755 17.6212 0.698774 17.6286 0.657026C17.636 0.615283 17.6592 0.577981 17.6934 0.552873L18.3931 0.0353234C18.4106 0.022335 18.4305 0.0129667 18.4517 0.00775745C18.4729 0.00254819 18.4949 0.00160102 18.5166 0.00497206C18.5382 0.00834311 18.559 0.0159656 18.5778 0.0273985C18.5965 0.0388314 18.6128 0.0538487 18.6259 0.0715853C19.264 0.955047 19.7569 1.91323 20.1046 2.94613C20.1128 2.97038 20.1265 2.99238 20.1448 3.0104C20.163 3.02843 20.1851 3.04198 20.2095 3.04997C20.2338 3.05797 20.2596 3.0602 20.285 3.05647C20.3103 3.05276 20.3345 3.04319 20.3555 3.02854C21.2512 2.40221 22.2139 1.90498 23.2437 1.53688C23.265 1.52924 23.2877 1.52607 23.3103 1.52756C23.3329 1.52905 23.3549 1.53516 23.3751 1.54552C23.3952 1.55587 23.413 1.57026 23.4273 1.58777C23.4416 1.60528 23.4522 1.62555 23.4583 1.64731L23.7026 2.51923C23.7139 2.55924 23.7095 2.60201 23.6906 2.63899C23.6716 2.67597 23.6393 2.70443 23.6003 2.71867C22.5187 3.11095 21.5169 3.65267 20.5948 4.34384C20.5705 4.36221 20.5518 4.38703 20.5407 4.41554C20.5296 4.44405 20.5266 4.47514 20.5321 4.50536C20.8666 6.30308 20.7934 8.07493 20.3126 9.82095C20.2345 10.1023 20.3176 10.1627 20.5618 10.0023C22.067 9.01444 23.7191 8.40126 25.518 8.16285C25.5491 8.15893 25.5784 8.14635 25.6024 8.12649C25.6264 8.10656 25.6441 8.08029 25.6534 8.05078C26.011 6.94864 26.2233 5.81792 26.2904 4.65865C26.293 4.61667 26.3114 4.57725 26.3421 4.54845C26.3728 4.51965 26.4134 4.50365 26.4555 4.50372H27.3318C27.3541 4.50371 27.3761 4.50815 27.3966 4.51676C27.417 4.52538 27.4355 4.53798 27.451 4.55384C27.4664 4.5697 27.4784 4.58847 27.4863 4.60903C27.4942 4.62959 27.4978 4.65152 27.4969 4.67349C27.4606 5.74375 27.3055 6.79696 27.0315 7.83316C27.0253 7.85664 27.0245 7.88117 27.029 7.90501C27.0334 7.9288 27.043 7.9514 27.0572 7.97108C27.0714 7.99075 27.0898 8.00707 27.111 8.01883C27.1322 8.0306 27.1558 8.03758 27.18 8.03919C28.2429 8.11173 29.2903 8.27767 30.3224 8.537C30.3442 8.54254 30.3646 8.55238 30.3824 8.56595C30.4003 8.57959 30.4151 8.59665 30.4261 8.61607C30.4371 8.6355 30.4439 8.65692 30.4463 8.67902C30.4485 8.70113 30.4463 8.72348 30.4397 8.74465L30.1722 9.62812C30.1659 9.64935 30.1553 9.66909 30.1411 9.68615C30.127 9.70315 30.1095 9.71722 30.0898 9.72737C30.07 9.73752 30.0485 9.74356 30.0263 9.74524C30.0042 9.74686 29.982 9.74405 29.961 9.73689C28.853 9.36991 27.712 9.22321 26.538 9.29681C26.5085 9.29837 26.4802 9.30777 26.4558 9.32402C26.4313 9.34027 26.4119 9.36275 26.3993 9.38915C25.6072 11.0527 24.4854 12.4477 23.0342 13.574C22.8482 13.7191 22.8724 13.7976 23.1068 13.8097C24.942 13.9108 26.6767 14.3822 28.3106 15.2239C28.3361 15.2374 28.365 15.2437 28.394 15.2423C28.423 15.2409 28.4512 15.2317 28.4756 15.2157C29.4581 14.5784 30.2971 13.7894 30.9925 12.8488C31.0053 12.8312 31.0215 12.8163 31.0402 12.8051C31.0589 12.7939 31.0797 12.7865 31.1014 12.7834C31.1231 12.7804 31.1452 12.7816 31.1665 12.7872C31.1877 12.7928 31.2077 12.8025 31.2252 12.8158L31.9349 13.3581C31.9694 13.384 31.9921 13.4224 31.9983 13.465C32.0045 13.5076 31.9936 13.551 31.9679 13.5856C31.322 14.4723 30.548 15.231 29.6458 15.8618C29.6241 15.8771 29.6064 15.8974 29.5943 15.921C29.5821 15.9446 29.5759 15.9709 29.576 15.9974C29.5762 16.0239 29.5827 16.05 29.5952 16.0735C29.6076 16.0969 29.6255 16.1171 29.6474 16.1321C30.554 16.7606 31.3265 17.5216 31.9646 18.4149C31.9894 18.4494 31.9997 18.4923 31.9932 18.5344C31.9867 18.5766 31.9641 18.6147 31.93 18.6408L31.2252 19.183C31.2079 19.1961 31.1882 19.2057 31.1671 19.2112C31.1461 19.2167 31.1241 19.2179 31.1025 19.2148C31.0809 19.2118 31.06 19.2045 31.0411 19.1933C31.0223 19.1823 31.0058 19.1675 30.9925 19.15C30.2883 18.2116 29.4477 17.4178 28.4706 16.7683C28.4456 16.7518 28.4167 16.7424 28.3868 16.7409C28.3569 16.7395 28.3271 16.746 28.3006 16.7601C26.703 17.6116 24.9982 18.088 23.186 18.1891C22.8944 18.2056 22.8636 18.3034 23.0935 18.4825C24.5195 19.5967 25.6215 20.9724 26.3993 22.6097C26.4119 22.6362 26.4314 22.6588 26.4558 22.6753C26.4801 22.6919 26.5085 22.7016 26.538 22.7037C27.7098 22.7817 28.8497 22.6355 29.9577 22.2652C29.9786 22.2584 30.0007 22.2557 30.0226 22.2575C30.0446 22.2592 30.0659 22.2654 30.0854 22.2755C30.105 22.2856 30.1223 22.2996 30.1364 22.3165C30.1504 22.3334 30.1609 22.3529 30.1673 22.374L30.4346 23.2459C30.4411 23.2668 30.4434 23.2887 30.4411 23.3105C30.4388 23.3322 30.4322 23.3534 30.4216 23.3725C30.411 23.3918 30.3966 23.4087 30.3793 23.4223C30.3619 23.436 30.342 23.4461 30.3208 23.452C29.2887 23.731 28.2401 23.9008 27.1751 23.9612C27.1505 23.9626 27.1266 23.9695 27.105 23.9812C27.0834 23.993 27.0648 24.0094 27.0504 24.0294C27.036 24.0492 27.0263 24.0721 27.0218 24.0963C27.0174 24.1204 27.0185 24.1452 27.0249 24.169C27.3087 25.203 27.4633 26.2562 27.4886 27.3286C27.4891 27.3505 27.4851 27.3723 27.477 27.3927C27.4689 27.4131 27.4568 27.4317 27.4415 27.4473C27.4261 27.463 27.4078 27.4754 27.3875 27.4839C27.3673 27.4924 27.3455 27.4967 27.3236 27.4967H26.4555C26.4134 27.4969 26.3728 27.4809 26.3421 27.452C26.3114 27.4232 26.293 27.3838 26.2904 27.3418C26.2233 26.1815 26.0093 25.0502 25.6484 23.9481C25.6384 23.9185 25.6203 23.8922 25.5961 23.8724C25.5719 23.8525 25.5425 23.8399 25.5114 23.836C23.7135 23.6075 22.0648 22.9987 20.5651 22.0098C20.3197 21.8482 20.2361 21.9092 20.3142 22.1927C20.7268 23.675 20.8341 25.1859 20.636 26.7254C20.602 26.9891 20.575 27.2545 20.5552 27.5215C20.5531 27.5488 20.5579 27.5763 20.5692 27.6013C20.5804 27.6264 20.5977 27.6482 20.6196 27.6649C21.5284 28.3615 22.5231 28.9005 23.6035 29.2818C23.6437 29.2962 23.6768 29.3252 23.6961 29.3629C23.7155 29.4006 23.7196 29.4441 23.7075 29.4845L23.4533 30.3515C23.447 30.3732 23.4364 30.3932 23.4219 30.4106C23.4075 30.4279 23.3897 30.4421 23.3696 30.4523C23.3496 30.4624 23.3276 30.4684 23.305 30.4698C23.2825 30.4712 23.26 30.468 23.2388 30.4603C22.2133 30.0922 21.255 29.5966 20.3637 28.9736C20.3427 28.9589 20.3186 28.9494 20.2932 28.9456C20.2679 28.9419 20.2421 28.9441 20.2177 28.9522C20.1933 28.9601 20.1712 28.9737 20.153 28.9917C20.1348 29.0098 20.1211 29.0317 20.1129 29.056C19.7575 30.0845 19.2657 31.0421 18.6374 31.9289C18.6247 31.9469 18.6085 31.9622 18.5899 31.974C18.5712 31.9857 18.5505 31.9936 18.5288 31.9973C18.5072 32.001 18.485 32.0003 18.4637 31.9954C18.4424 31.9904 18.4224 31.9813 18.4047 31.9684L17.6917 31.4476C17.6572 31.4221 17.6338 31.3843 17.6264 31.3422C17.619 31.3001 17.6282 31.257 17.6521 31.2218C18.3046 30.2658 18.7958 29.2307 19.1259 28.1165C19.1344 28.0872 19.1345 28.0561 19.1264 28.0267C19.1182 27.9973 19.1021 27.9708 19.0797 27.95C17.7484 26.6974 16.7735 25.2178 16.1551 23.5113C16.0517 23.2256 15.9483 23.2256 15.8449 23.5113C15.2265 25.2178 14.2489 26.6951 12.9121 27.9434C12.8897 27.9647 12.8737 27.9917 12.8658 28.0214C12.858 28.0511 12.8585 28.0823 12.8675 28.1115C13.1965 29.2257 13.6866 30.2614 14.3381 31.2185C14.3621 31.2534 14.3716 31.2964 14.3645 31.3383C14.3575 31.3801 14.3344 31.4176 14.3001 31.4427L13.6003 31.9668C13.5828 31.9799 13.5629 31.9895 13.5416 31.9949C13.5204 32.0003 13.4984 32.0014 13.4767 31.9982C13.455 31.995 13.4342 31.9875 13.4155 31.9761C13.3967 31.9648 13.3804 31.9499 13.3676 31.9322C12.7283 31.0509 12.2376 30.0933 11.8954 29.0593C11.8874 29.0349 11.8738 29.0127 11.8557 28.9945C11.8376 28.9763 11.8154 28.9626 11.7911 28.9544C11.7667 28.9462 11.7408 28.9439 11.7153 28.9475C11.6899 28.9511 11.6657 28.9606 11.6445 28.9753C10.7467 29.5917 9.78449 30.0878 8.75792 30.4636C8.73662 30.4713 8.71396 30.4745 8.69137 30.4732C8.66871 30.4718 8.64661 30.4659 8.62636 30.4557C8.60618 30.4455 8.58821 30.4313 8.57364 30.4139C8.55907 30.3966 8.54821 30.3765 8.54173 30.3548L8.28757 29.4845C8.27584 29.4443 8.27985 29.4011 8.29886 29.3638C8.31788 29.3264 8.35041 29.2977 8.38986 29.2835C9.47366 28.8901 10.4766 28.3473 11.3986 27.655C11.423 27.6361 11.4418 27.611 11.4529 27.5822C11.4639 27.5534 11.4669 27.5221 11.4613 27.4918C11.1268 25.7018 11.2005 23.9365 11.6825 22.196C11.7606 21.9147 11.6776 21.8537 11.4333 22.013C9.92809 22.9998 8.27491 23.6086 6.47376 23.8393C6.44264 23.8432 6.41332 23.8558 6.38912 23.8757C6.36486 23.8955 6.34671 23.9217 6.33677 23.9514C5.98464 25.0557 5.76789 26.1864 5.68646 27.3435C5.68393 27.385 5.66547 27.4241 5.63479 27.4525C5.60411 27.481 5.56355 27.4969 5.52145 27.4967H4.65662C4.63458 27.4968 4.61279 27.4923 4.59254 27.4837C4.57223 27.4749 4.55395 27.4622 4.5387 27.4462C4.52339 27.4302 4.51154 27.4112 4.5037 27.3904C4.49592 27.3697 4.49234 27.3475 4.49321 27.3253C4.53062 26.2562 4.69014 25.2057 4.97183 24.1739C4.97831 24.1501 4.97942 24.1253 4.9751 24.1011C4.97078 24.0769 4.96115 24.054 4.94689 24.0341C4.93269 24.0142 4.91417 23.9978 4.89281 23.986C4.87139 23.9743 4.84768 23.9675 4.8233 23.9662C3.75271 23.8992 2.70033 23.7283 1.66604 23.4536C1.64455 23.4482 1.62449 23.4384 1.60689 23.4249C1.58936 23.4114 1.57473 23.3944 1.56393 23.375C1.55312 23.3555 1.54639 23.334 1.54405 23.3119C1.54176 23.2897 1.54393 23.2673 1.55053 23.2459L1.82284 22.374C1.82963 22.3531 1.84043 22.3338 1.85463 22.317C1.86889 22.3003 1.88624 22.2866 1.90575 22.2766C1.92519 22.2667 1.94643 22.2607 1.96816 22.259C1.98995 22.2573 2.01175 22.26 2.03243 22.2669C3.14481 22.6328 4.288 22.7789 5.462 22.7053C5.49145 22.7037 5.51984 22.6943 5.54429 22.6781C5.56868 22.6618 5.58818 22.6394 5.60065 22.613C6.40165 20.9516 7.52614 19.556 8.97411 18.4264C9.16005 18.2825 9.1353 18.204 8.89984 18.1908ZM12.5341 5.79594C12.3195 8.70125 13.136 11.2451 14.9834 13.4273C15.1572 13.6328 15.254 13.6015 15.2738 13.3334C15.4939 10.4445 14.6775 7.90078 12.8246 5.702C12.6507 5.49542 12.5539 5.52673 12.5341 5.79594ZM19.1655 5.71024C17.2973 7.92438 16.4797 10.4984 16.713 13.4323C16.7295 13.6432 16.8065 13.6685 16.944 13.5081C18.8398 11.3071 19.6772 8.73917 19.456 5.80419C19.4362 5.53607 19.3394 5.50476 19.1655 5.71024ZM19.5221 12.4235C18.9763 12.9774 18.5098 13.5949 18.1225 14.2761C17.9959 14.5004 18.0575 14.5811 18.3073 14.5185C21.1207 13.8119 23.2976 12.2313 24.8381 9.77643C24.98 9.54898 24.9206 9.46604 24.6598 9.52756C22.6661 10.0011 20.9535 10.9665 19.5221 12.4235ZM10.5388 10.8659C9.54959 10.244 8.48505 9.79897 7.34514 9.53086C7.08437 9.47046 7.02498 9.5534 7.16691 9.77973C8.71939 12.2532 10.9211 13.8399 13.772 14.5399C13.9744 14.5893 14.0228 14.5245 13.9172 14.3454C13.0744 12.9125 11.9482 11.7527 10.5388 10.8659ZM10.3209 15.097C8.5087 14.9058 6.77854 15.1679 5.1303 15.8832C4.93991 15.9656 4.94103 16.0464 5.13357 16.1255C7.85129 17.2463 10.5712 17.2551 13.2933 16.1519C13.543 16.0508 13.5436 15.9491 13.2949 15.847C12.3388 15.4557 11.3475 15.2058 10.3209 15.097ZM26.8796 15.8766C24.163 14.7405 21.4409 14.7316 18.7133 15.8503C18.4636 15.9524 18.4641 16.0541 18.7149 16.1552C21.4437 17.2551 24.1652 17.2435 26.8796 16.1205C27.0744 16.0392 27.0744 15.9579 26.8796 15.8766ZM12.813 19.1962C13.2399 18.7182 13.614 18.2007 13.9353 17.6435C14.0388 17.4655 13.9903 17.4007 13.7901 17.4491C10.9007 18.1556 8.68038 19.7698 7.12894 22.2916C7.01893 22.4696 7.06622 22.535 7.27087 22.4878C9.45273 21.9899 11.3001 20.8928 12.813 19.1962ZM23.2107 20.1786C21.8354 18.8391 20.174 17.938 18.2264 17.4754C18.0196 17.4271 17.9717 17.493 18.0828 17.6732C19.6266 20.1741 21.8326 21.7768 24.7011 22.4812C24.9024 22.5306 24.9508 22.4658 24.8463 22.2866C24.3809 21.49 23.8357 20.7873 23.2107 20.1786ZM14.985 18.5748C13.12 20.7823 12.3047 23.3492 12.5391 26.2754C12.5555 26.4853 12.6326 26.5105 12.7701 26.3513C14.6615 24.1558 15.4966 21.5949 15.2755 18.6688C15.2557 18.4007 15.1589 18.3693 14.985 18.5748ZM19.1804 26.315C19.3718 26.5402 19.4686 26.505 19.4709 26.2095C19.4753 25.8117 19.4758 25.4139 19.4725 25.0161C19.467 24.4843 19.4346 24.0294 19.3751 23.6514C19.066 21.6922 18.2705 19.9934 16.9886 18.555C16.8148 18.3594 16.7191 18.3924 16.7014 18.6539C16.4979 21.5702 17.3242 24.1239 19.1804 26.315Z" fill="#098659"/>
    <path d="M14.9258 3.69125C14.9274 4.58517 15.4089 5.30899 16.0014 5.30796C16.5939 5.30692 17.0729 4.58142 17.0714 3.68751C17.0698 2.79359 16.5882 2.06977 15.9958 2.0708C15.4033 2.07184 14.9242 2.79733 14.9258 3.69125Z" fill="#098659"/>
    <path d="M7.88872 6.66295C8.40501 7.37525 9.21144 7.67225 9.68988 7.32637C10.1684 6.98049 10.1377 6.12267 9.62135 5.41035C9.10507 4.69804 8.29864 4.401 7.8202 4.74688C7.3417 5.09277 7.37238 5.95061 7.88872 6.66295Z" fill="#098659"/>
    <path d="M22.3743 5.41489C21.8597 6.12736 21.831 6.98464 22.31 7.32971C22.7891 7.67478 23.5946 7.37691 24.1091 6.66442C24.6236 5.95196 24.6524 5.09467 24.1734 4.74961C23.6942 4.40456 22.8888 4.70241 22.3743 5.41489Z" fill="#098659"/>
    <path d="M3.96201 13.2065C4.81264 13.476 5.64562 13.2429 5.82255 12.6858C5.99948 12.1287 5.45338 11.4587 4.60281 11.1892C3.75217 10.9198 2.9192 11.1529 2.74227 11.71C2.56534 12.267 3.11144 12.937 3.96201 13.2065Z" fill="#098659"/>
    <path d="M28.0284 13.2157C28.8787 12.9545 29.4281 12.2885 29.2555 11.7282C29.0829 11.1679 28.2536 10.9254 27.4033 11.1867C26.5531 11.4479 26.0036 12.1139 26.1762 12.6742C26.3488 13.2345 27.1781 13.477 28.0284 13.2157Z" fill="#098659"/>
    <path d="M4.59709 20.8128C5.44334 20.5447 5.98592 19.8758 5.80892 19.3188C5.63199 18.7617 4.80254 18.5275 3.95629 18.7955C3.11004 19.0636 2.56746 19.7325 2.74439 20.2896C2.92132 20.8467 3.75084 21.0809 4.59709 20.8128Z" fill="#098659"/>
    <path d="M27.3977 20.8124C28.2501 21.0792 29.083 20.8434 29.258 20.2858C29.433 19.7281 28.8838 19.0597 28.0314 18.793C27.1791 18.5262 26.3461 18.762 26.1712 19.3197C25.9962 19.8774 26.5453 20.5457 27.3977 20.8124Z" fill="#098659"/>
    <path d="M7.88632 25.3366C7.37004 26.0489 7.33991 26.9071 7.81909 27.2536C8.29833 27.6 9.10532 27.3034 9.62166 26.5911C10.1379 25.8788 10.168 25.0204 9.68883 24.6741C9.20965 24.3276 8.40266 24.6243 7.88632 25.3366Z" fill="#098659"/>
    <path d="M22.3799 26.5891C22.8965 27.2989 23.7019 27.5938 24.179 27.2476C24.6561 26.9015 24.6242 26.0453 24.1077 25.3354C23.5913 24.6254 22.7858 24.3306 22.3087 24.6767C21.8315 25.0229 21.8635 25.8791 22.3799 26.5891Z" fill="#098659"/>
    <path d="M14.9258 28.3076C14.9242 29.2033 15.4032 29.9302 15.9957 29.9313C16.5882 29.9323 17.0697 29.207 17.0714 28.3113C17.0729 27.4156 16.5938 26.6886 16.0014 26.6875C15.4089 26.6865 14.9273 27.4118 14.9258 28.3076Z" fill="#098659"/>
</svg>
