<svg width="39" height="38" viewBox="0 0 39 38" fill="none" xmlns="http://www.w3.org/2000/svg">
<g clip-path="url(#clip0_9119_66607)">
<path d="M37.9241 20.0352L33.2685 24.6352L27.449 18.8943L33.2685 13.1719L37.9241 17.7719C38.0772 17.9228 38.2004 18.1007 38.2872 18.2964C38.449 18.6981 38.449 19.1458 38.2872 19.5475C38.1965 19.7301 38.0735 19.8953 37.9241 20.0352Z" fill="#0F9D58"/>
<path d="M33.259 6.71575V13.1558H25.0093V5.07812H31.6203C31.8377 5.08005 32.0528 5.12377 32.2534 5.20693C32.4509 5.28961 32.6309 5.4082 32.7841 5.55653C32.9407 5.70639 33.0638 5.88691 33.1455 6.08657C33.2273 6.28618 33.266 6.50046 33.259 6.71575Z" fill="#0F9D58"/>
<path d="M25.0096 5.07938L19.1714 10.8019L13.3799 5.07938L18.0354 0.479337C18.1878 0.327456 18.3692 0.206901 18.5689 0.12463C18.7687 0.0423587 18.9829 0 19.1994 0C19.4158 0 19.6301 0.0423587 19.8298 0.12463C20.0296 0.206901 20.211 0.327456 20.3633 0.479337L25.0096 5.07938Z" fill="#0F9D58"/>
<path d="M13.3797 5.07812V13.1742H5.13925V6.73414C5.13702 6.51671 5.17816 6.30103 5.26028 6.09932C5.34593 5.90028 5.46915 5.71919 5.62342 5.5657C5.77996 5.41711 5.9631 5.29857 6.1635 5.2161C6.36761 5.13495 6.58591 5.09433 6.80596 5.09651L13.3797 5.07812Z" fill="#0F9D58"/>
<path d="M10.968 18.8816L5.13922 24.6224L0.483574 20.0223C0.330423 19.8734 0.208796 19.6958 0.125776 19.4999C0.0427551 19.3041 0 19.0939 0 18.8816C0 18.6692 0.0427551 18.4589 0.125776 18.2631C0.208796 18.0673 0.330423 17.8897 0.483574 17.7407L5.13922 13.1406L10.968 18.8816Z" fill="#0F9D58"/>
<path d="M13.3798 24.6172V32.7133H6.80602C6.59003 32.7145 6.37592 32.6735 6.17605 32.5927C5.97614 32.5118 5.79439 32.3928 5.64121 32.2423C5.48804 32.0918 5.36652 31.9129 5.28358 31.7159C5.20063 31.5188 5.15796 31.3075 5.15796 31.0941V24.654L13.3798 24.6172Z" fill="#0F9D58"/>
<path d="M25.0091 32.7146L20.3535 37.3147C20.2012 37.4666 20.0199 37.5872 19.8201 37.6694C19.6203 37.7517 19.406 37.7941 19.1896 37.7941C18.9732 37.7941 18.7589 37.7517 18.5592 37.6694C18.3594 37.5872 18.1781 37.4666 18.0257 37.3147L13.3701 32.7146L19.171 26.9922L25.0091 32.7146Z" fill="#0F9D58"/>
<path d="M33.259 24.6228V31.0628C33.2615 31.2761 33.2209 31.4878 33.1394 31.6853C33.0579 31.8829 32.9373 32.0624 32.7846 32.2133C32.6319 32.3641 32.4502 32.4833 32.2503 32.5638C32.0504 32.6443 31.8361 32.6845 31.6203 32.682H25.0093V24.5859L33.259 24.6228Z" fill="#0F9D58"/>
<path d="M19.1994 10.8006L16.7877 13.1742H13.3799V5.07812L19.1994 10.8006Z" fill="#A1D151"/>
<path d="M13.3796 13.1719V16.4931L10.968 18.8667L5.13916 13.1719H13.3796Z" fill="#A1D151"/>
<path d="M13.3796 21.2721V24.6209H5.13916L10.968 18.8984L13.3796 21.2721Z" fill="#A1D151"/>
<path d="M19.1994 26.9908L13.3799 32.7133V24.6172H16.7877L19.1994 26.9908Z" fill="#A1D151"/>
<path d="M25.009 24.6172V32.7133L19.1802 26.9908L21.6011 24.6172H25.009Z" fill="#A1D151"/>
<path d="M33.259 24.6209H25.0093V21.2721L27.4208 18.8984L33.259 24.6209Z" fill="#A1D151"/>
<path d="M33.259 13.1719L27.4395 18.8943L25.0093 16.4931V13.1719H33.259Z" fill="#A1D151"/>
<path d="M25.0092 5.07812V13.1742H21.6198L19.199 10.8006L25.0092 5.07812Z" fill="#A1D151"/>
</g>
<defs>
<clipPath id="clip0_9119_66607">
<rect width="38.4368" height="38" fill="white"/>
</clipPath>
</defs>
</svg>
