<svg width="18" height="18" viewBox="0 0 18 18" fill="none" xmlns="http://www.w3.org/2000/svg">
<path fill-rule="evenodd" clip-rule="evenodd" d="M12.0003 0.666016C11.6467 0.666016 11.3076 0.806491 11.0575 1.05654C10.8075 1.30659 10.667 1.64573 10.667 1.99935V5.66601H7.00032C6.64671 5.66601 6.30757 5.80649 6.05752 6.05654C5.80746 6.30659 5.66699 6.64573 5.66699 6.99935V11.4993H2.00033C1.6467 11.4993 1.30757 11.6398 1.05752 11.8899C0.807467 12.1399 0.666992 12.4791 0.666992 12.8327V15.9993C0.666992 16.353 0.807467 16.6921 1.05752 16.9422C1.30757 17.1922 1.6467 17.3327 2.00033 17.3327H16.0003C16.3539 17.3327 16.6931 17.1922 16.9431 16.9422C17.1932 16.6921 17.3337 16.353 17.3337 15.9993V1.99935C17.3337 1.64573 17.1932 1.30659 16.9431 1.05654C16.6931 0.806491 16.3539 0.666016 16.0003 0.666016H12.0003ZM7.33366 7.33268H10.667V15.666H7.33366V7.33268ZM15.667 15.666H12.3337V2.33268H15.667V15.666ZM5.66699 13.166V15.666H2.33366V13.166H5.66699Z" fill="#667085"/>
</svg>
