<svg width="24" height="25" viewBox="0 0 24 25" fill="none" xmlns="http://www.w3.org/2000/svg">
<g clip-path="url(#clip0_3334_3570)">
<path d="M12 24.75C18.6274 24.75 24 19.3774 24 12.75C24 6.12258 18.6274 0.75 12 0.75C5.37258 0.75 0 6.12258 0 12.75C0 19.3774 5.37258 24.75 12 24.75Z" fill="#F0F0F0"/>
<path d="M11.4779 12.7506H23.9996C23.9996 11.6675 23.8552 10.6182 23.5862 9.62012H11.4779V12.7506Z" fill="#D80027"/>
<path d="M11.4779 6.48885H22.2383C21.5038 5.29016 20.5645 4.23065 19.4694 3.3584H11.4779V6.48885Z" fill="#D80027"/>
<path d="M11.9997 24.7503C14.8239 24.7503 17.4197 23.7742 19.4695 22.1416H4.52991C6.57975 23.7742 9.17555 24.7503 11.9997 24.7503Z" fill="#D80027"/>
<path d="M1.76104 19.0103H22.2385C22.8282 18.048 23.2856 16.9962 23.5864 15.8799H0.413147C0.713944 16.9962 1.1713 18.048 1.76104 19.0103Z" fill="#D80027"/>
<path d="M5.55863 2.62397H6.65217L5.63498 3.36295L6.02353 4.55869L5.00639 3.8197L3.98925 4.55869L4.32487 3.5257C3.42928 4.27172 2.64431 5.14575 1.99744 6.11963H2.34783L1.70034 6.59002C1.59947 6.7583 1.50272 6.92925 1.41 7.10273L1.71919 8.05434L1.14234 7.63523C0.998953 7.93903 0.867797 8.24967 0.749906 8.56678L1.09055 9.61528H2.34783L1.33064 10.3543L1.71919 11.55L0.702047 10.811L0.0927656 11.2537C0.0317812 11.7439 0 12.2432 0 12.75H12C12 6.12262 12 5.34131 12 0.75C9.62944 0.75 7.41961 1.43766 5.55863 2.62397ZM6.02353 11.55L5.00639 10.811L3.98925 11.55L4.3778 10.3543L3.36061 9.61528H4.61789L5.00639 8.41955L5.39489 9.61528H6.65217L5.63498 10.3543L6.02353 11.55ZM5.63498 6.85861L6.02353 8.05434L5.00639 7.31536L3.98925 8.05434L4.3778 6.85861L3.36061 6.11963H4.61789L5.00639 4.92389L5.39489 6.11963H6.65217L5.63498 6.85861ZM10.3279 11.55L9.31073 10.811L8.29359 11.55L8.68214 10.3543L7.66495 9.61528H8.92223L9.31073 8.41955L9.69923 9.61528H10.9565L9.93933 10.3543L10.3279 11.55ZM9.93933 6.85861L10.3279 8.05434L9.31073 7.31536L8.29359 8.05434L8.68214 6.85861L7.66495 6.11963H8.92223L9.31073 4.92389L9.69923 6.11963H10.9565L9.93933 6.85861ZM9.93933 3.36295L10.3279 4.55869L9.31073 3.8197L8.29359 4.55869L8.68214 3.36295L7.66495 2.62397H8.92223L9.31073 1.42823L9.69923 2.62397H10.9565L9.93933 3.36295Z" fill="#0052B4"/>
</g>
<defs>
<clipPath id="clip0_3334_3570">
<rect width="24" height="24" fill="white" transform="translate(0 0.75)"/>
</clipPath>
</defs>
</svg>
