<svg width="20" height="20" viewBox="0 0 20 20" fill="none" xmlns="http://www.w3.org/2000/svg">
<g clip-path="url(#clip0_3112_46354)">
<path d="M15.1587 4.69847C16.1904 4.69847 16.9841 5.50168 16.9841 6.54586V13.4535C16.9841 14.4977 16.1904 15.3009 15.1587 15.3009H4.84123C3.80948 15.3009 3.01583 14.4977 3.01583 13.4535V6.54586C3.01583 5.50168 3.80948 4.69847 4.84123 4.69847H15.1587ZM15.1587 3.33301H4.84123C3.0952 3.33301 1.66663 4.77879 1.66663 6.54586V13.4535C1.66663 15.2206 3.0952 16.6663 4.84123 16.6663H15.1587C16.9047 16.6663 18.3333 15.2206 18.3333 13.4535V6.54586C18.3333 4.77879 16.9047 3.33301 15.1587 3.33301Z" fill="#667085"/>
<path d="M17.4603 8.63379H15.2381C14.5238 8.63379 13.8889 9.19604 13.8889 9.99925C13.8889 10.7221 14.4445 11.3647 15.2381 11.3647H17.4603" stroke="#667085" strokeWidth="1.58567" stroke-linecap="round" stroke-linejoin="round"/>
</g>
<defs>
<clipPath id="clip0_3112_46354">
<rect width="16.6667" height="13.3333" fill="white" transform="translate(1.66663 3.33301)"/>
</clipPath>
</defs>
</svg>
